<svg width="35" height="36" viewBox="0 0 35 36" fill="none" xmlns="http://www.w3.org/2000/svg">
<path d="M7.17987 17.5047C7.17987 17.0946 7.34279 16.7013 7.63279 16.4113C7.9228 16.1213 8.31613 15.9583 8.72625 15.9583H15.9283V8.75634C15.9283 8.34622 16.0912 7.95289 16.3812 7.66288C16.6712 7.37288 17.0645 7.20996 17.4746 7.20996C17.8848 7.20996 18.2781 7.37288 18.5681 7.66288C18.8581 7.95289 19.021 8.34622 19.021 8.75634V15.9583H26.223C26.6332 15.9583 27.0265 16.1213 27.3165 16.4113C27.6065 16.7013 27.7694 17.0946 27.7694 17.5047C27.7694 17.9149 27.6065 18.3082 27.3165 18.5982C27.0265 18.8882 26.6332 19.0511 26.223 19.0511H19.021V26.2531C19.021 26.6632 18.8581 27.0566 18.5681 27.3466C18.2781 27.6366 17.8848 27.7995 17.4746 27.7995C17.0645 27.7995 16.6712 27.6366 16.3812 27.3466C16.0912 27.0566 15.9283 26.6632 15.9283 26.2531V19.0511H8.72625C8.31613 19.0511 7.9228 18.8882 7.63279 18.5982C7.34279 18.3082 7.17987 17.9149 7.17987 17.5047Z" fill="white"/>
<path fill-rule="evenodd" clip-rule="evenodd" d="M7.81903 0.533591C14.2364 -0.177864 20.7128 -0.177864 27.1302 0.533591C30.8972 0.954207 33.9384 3.92119 34.3796 7.70879C35.1425 14.218 35.1425 20.7932 34.3796 27.3025C33.9364 31.0901 30.8951 34.055 27.1302 34.4777C20.7128 35.1891 14.2364 35.1891 7.81903 34.4777C4.05205 34.055 1.01083 31.0901 0.569598 27.3025C-0.189866 20.7933 -0.189866 14.2179 0.569598 7.70879C1.01083 3.92119 4.05411 0.954207 7.81903 0.533591ZM26.788 3.60573C20.598 2.91961 14.3512 2.91961 8.16129 3.60573C7.01541 3.73286 5.94585 4.24258 5.12539 5.05256C4.30494 5.86254 3.78151 6.92546 3.63968 8.06962C2.90634 14.3396 2.90634 20.6737 3.63968 26.9437C3.78195 28.0875 4.30556 29.1499 5.12598 29.9595C5.94639 30.7691 7.01572 31.2785 8.16129 31.4055C14.2994 32.0901 20.6499 32.0901 26.788 31.4055C27.9332 31.2781 29.002 30.7684 29.822 29.9589C30.642 29.1494 31.1653 28.0872 31.3075 26.9437C32.0408 20.6737 32.0408 14.3396 31.3075 8.06962C31.1649 6.92652 30.6414 5.86478 29.8214 5.05567C29.0015 4.24655 27.9329 3.73723 26.788 3.60986" fill="url(#paint0_linear_40_1101)"/>
<defs>
<linearGradient id="paint0_linear_40_1101" x1="17.4759" y1="0" x2="17.4759" y2="35.0113" gradientUnits="userSpaceOnUse">
<stop stop-color="#0091FF"/>
<stop offset="1" stop-color="#62BBFF"/>
</linearGradient>
</defs>
</svg>
