<svg width="68" height="85" viewBox="0 0 68 85" fill="none" xmlns="http://www.w3.org/2000/svg">
<g filter="url(#filter0_d_22_138)">
<path d="M18.7776 2.81664C18.7776 2.06962 19.0744 1.3532 19.6026 0.824975C20.1308 0.296752 20.8472 0 21.5943 0H36.6164C37.3634 0 38.0798 0.296752 38.608 0.824975C39.1362 1.3532 39.433 2.06962 39.433 2.81664V5.63329H55.394C56.141 5.63329 56.8574 5.93004 57.3856 6.45826C57.9139 6.98648 58.2106 7.70291 58.2106 8.44993C58.2106 9.19695 57.9139 9.91337 57.3856 10.4416C56.8574 10.9698 56.141 11.2666 55.394 11.2666H2.81664C2.06962 11.2666 1.3532 10.9698 0.824975 10.4416C0.296752 9.91337 0 9.19695 0 8.44993C0 7.70291 0.296752 6.98648 0.824975 6.45826C1.3532 5.93004 2.06962 5.63329 2.81664 5.63329H18.7776V2.81664Z" fill="white"/>
<path fill-rule="evenodd" clip-rule="evenodd" d="M7.47354 21.5533C7.52439 21.0938 7.74294 20.6693 8.08734 20.3609C8.43173 20.0525 8.87777 19.882 9.34004 19.8821H48.8707C49.333 19.882 49.779 20.0525 50.1234 20.3609C50.4678 20.6693 50.6863 21.0938 50.7372 21.5533L51.4883 28.317C52.8444 40.5111 52.8444 52.8181 51.4883 65.0122L51.4132 65.6769C51.1749 67.8361 50.2234 69.8542 48.7093 71.4118C47.1952 72.9694 45.2049 73.9777 43.0534 74.2771C33.7998 75.572 24.4109 75.572 15.1573 74.2771C13.0051 73.9785 11.014 72.9706 9.49912 71.4128C7.98426 69.8551 7.03225 67.8367 6.7938 65.6769L6.71869 65.0122C5.36281 52.8193 5.36281 40.5137 6.71869 28.3207L7.47354 21.5533ZM24.411 34.5286C24.411 33.7816 24.1142 33.0652 23.586 32.537C23.0578 32.0087 22.3413 31.712 21.5943 31.712C20.8473 31.712 20.1309 32.0087 19.6026 32.537C19.0744 33.0652 18.7777 33.7816 18.7777 34.5286V60.8173C18.7777 61.5643 19.0744 62.2807 19.6026 62.809C20.1309 63.3372 20.8473 63.6339 21.5943 63.6339C22.3413 63.6339 23.0578 63.3372 23.586 62.809C24.1142 62.2807 24.411 61.5643 24.411 60.8173V34.5286ZM39.433 34.5286C39.433 33.7816 39.1363 33.0652 38.6081 32.537C38.0798 32.0087 37.3634 31.712 36.6164 31.712C35.8694 31.712 35.153 32.0087 34.6247 32.537C34.0965 33.0652 33.7998 33.7816 33.7998 34.5286V60.8173C33.7998 61.5643 34.0965 62.2807 34.6247 62.809C35.153 63.3372 35.8694 63.6339 36.6164 63.6339C37.3634 63.6339 38.0798 63.3372 38.6081 62.809C39.1363 62.2807 39.433 61.5643 39.433 60.8173V34.5286Z" fill="white"/>
</g>
<defs>
<filter id="filter0_d_22_138" x="0" y="0" width="67.2106" height="84.2483" filterUnits="userSpaceOnUse" color-interpolation-filters="sRGB">
<feFlood flood-opacity="0" result="BackgroundImageFix"/>
<feColorMatrix in="SourceAlpha" type="matrix" values="0 0 0 0 0 0 0 0 0 0 0 0 0 0 0 0 0 0 127 0" result="hardAlpha"/>
<feOffset dx="5" dy="5"/>
<feGaussianBlur stdDeviation="2"/>
<feComposite in2="hardAlpha" operator="out"/>
<feColorMatrix type="matrix" values="0 0 0 0 0 0 0 0 0 0 0 0 0 0 0 0 0 0 0.25 0"/>
<feBlend mode="normal" in2="BackgroundImageFix" result="effect1_dropShadow_22_138"/>
<feBlend mode="normal" in="SourceGraphic" in2="effect1_dropShadow_22_138" result="shape"/>
</filter>
</defs>
</svg>
