<svg width="62" height="60" viewBox="0 0 62 60" fill="none" xmlns="http://www.w3.org/2000/svg">
<path d="M16.4812 2.6992C16.4812 2.01946 16.2104 1.36755 15.7285 0.886905C15.2466 0.406256 14.593 0.13623 13.9114 0.13623C13.2299 0.13623 12.5762 0.406256 12.0943 0.886905C11.6124 1.36755 11.3416 2.01946 11.3416 2.6992V8.90499C8.84194 9.25852 6.52694 10.4182 4.75008 12.207C2.97323 13.9958 1.83215 16.3154 1.50109 18.8117L1.20299 21.0432C1.15274 21.4191 1.10477 21.7973 1.05909 22.1777C1.03145 22.4145 1.0545 22.6544 1.12671 22.8816C1.19892 23.1088 1.31864 23.3181 1.47797 23.4958C1.63731 23.6734 1.83262 23.8153 2.051 23.9121C2.26939 24.0089 2.50588 24.0584 2.74486 24.0572H59.3451C59.5841 24.0584 59.8206 24.0089 60.0389 23.9121C60.2573 23.8153 60.4526 23.6734 60.612 23.4958C60.7713 23.3181 60.891 23.1088 60.9632 22.8816C61.0354 22.6544 61.0585 22.4145 61.0309 22.1777L60.887 21.0432L60.5889 18.8117C60.2578 16.3154 59.1167 13.9958 57.3399 12.207C55.563 10.4182 53.248 9.25852 50.7483 8.90499V2.6992C50.7483 2.01946 50.4776 1.36755 49.9957 0.886905C49.5137 0.406256 48.8601 0.13623 48.1785 0.13623C47.497 0.13623 46.8434 0.406256 46.3614 0.886905C45.8795 1.36755 45.6088 2.01946 45.6088 2.6992V8.39923C35.9198 7.54026 26.1736 7.54026 16.4846 8.39923L16.4812 2.6992ZM61.6922 30.8098C61.6761 30.3716 61.4898 29.9569 61.1726 29.6533C60.8555 29.3497 60.4323 29.1811 59.9927 29.1832H2.09385C1.65424 29.1811 1.23107 29.3497 0.91388 29.6533C0.596695 29.9569 0.410384 30.3716 0.39437 30.8098C0.191766 36.994 0.570319 43.1835 1.52507 49.2973C1.87696 51.5498 2.96912 53.6218 4.62998 55.188C6.29084 56.7541 8.4263 57.7256 10.7009 57.9499L14.7886 58.3531C25.5988 59.4125 36.4878 59.4125 47.298 58.3531L51.3856 57.9499C53.6602 57.7256 55.7957 56.7541 57.4565 55.188C59.1174 53.6218 60.2096 51.5498 60.5615 49.2973C61.5162 43.1835 61.8948 36.994 61.6922 30.8098Z" fill="url(#paint0_linear_23_523)"/>
<defs>
<linearGradient id="paint0_linear_23_523" x1="56.0779" y1="-15.2067" x2="-26.6772" y2="108.411" gradientUnits="userSpaceOnUse">
<stop offset="0.00268436" stop-color="white"/>
<stop offset="0.783654" stop-color="#999999"/>
</linearGradient>
</defs>
</svg>
