<svg width="145" height="75" viewBox="0 0 145 75" fill="none" xmlns="http://www.w3.org/2000/svg">
<g clip-path="url(#clip0_39_5)">
<g filter="url(#filter0_d_39_5)">
<path d="M133.279 58.0463C125.277 71.45 107.815 75.4568 83.9282 74.8041C60.1665 73.8112 39.272 66.6911 17.5514 56.1519C-4.22858 44.2497 -5.96134 33.0729 13.6034 18.4105C31.85 4.3784 55.5468 -2.15857 78.9931 0.632695C102.655 3.05855 120.471 10.795 132.292 21.6163C141.309 33.9515 143.523 45.6064 133.279 58.0463Z" fill="url(#paint0_linear_39_5)"/>
<path d="M133.279 58.0463C122.587 70.8894 106.162 75.6511 83.9282 74.8041L133.279 58.0463ZM133.279 58.0463C123.368 70.0798 108.049 76.2007 83.9282 74.8041L133.279 58.0463ZM83.9282 74.8041C61.0781 72.977 39.557 66.8197 17.5515 56.1519L83.9282 74.8041ZM83.9282 74.8041C61.5474 73.0835 39.1905 67.0865 17.5515 56.1519L83.9282 74.8041ZM17.5515 56.1519C-4.10248 44.4771 -4.95519 32.0734 13.6034 18.4105L17.5515 56.1519ZM17.5515 56.1519C-4.41716 45.3341 -3.96932 32.6562 13.6034 18.4105L17.5515 56.1519ZM13.6034 18.4105C31.3181 4.81982 54.0738 -1.21628 78.9932 0.632701L13.6034 18.4105ZM13.6034 18.4105C31.0644 4.38938 54.7278 -1.5362 78.9932 0.632701L13.6034 18.4105ZM78.9932 0.632701C104.806 2.67641 122.074 9.23461 132.292 21.6163L78.9932 0.632701ZM78.9932 0.632701C104.135 2.10448 121.271 10.0318 132.292 21.6163L78.9932 0.632701ZM132.292 21.6163C142.316 33.0446 142.066 45.9161 133.279 58.0463L132.292 21.6163ZM132.292 21.6163C143.3 33.2077 143.998 45.7885 133.279 58.0463L132.292 21.6163Z" fill="url(#paint1_linear_39_5)"/>
</g>
<g filter="url(#filter1_d_39_5)">
<path d="M21.7175 36.531C19.3395 34.617 18.3825 31.601 20.0645 28.933C21.5725 26.497 24.6755 25.511 27.5465 25.511C28.0685 25.511 28.5615 25.54 29.0545 25.598C32.3315 26.004 36.0725 28.15 34.2165 31.862C33.6365 33.022 32.6795 33.457 31.6645 33.457C30.7945 33.457 29.8375 33.109 29.0545 32.645C28.6775 32.442 28.2715 32.21 27.8655 32.094C27.5755 32.036 27.2275 32.007 26.9665 32.152C26.7635 32.268 26.6765 32.558 26.7055 32.761C26.7055 33.167 26.9085 33.573 27.1985 33.863C27.9525 34.588 28.9095 35.081 29.8375 35.632C32.2445 36.995 33.8975 38.387 34.1295 41.316C34.1875 42.679 33.7815 44.187 32.8825 45.26C31.2875 47.116 28.8225 47.841 26.2995 47.841C24.4725 47.841 21.4565 47.377 20.0065 46.13C19.4555 45.608 19.0205 44.796 19.1365 44.042C19.3395 42.331 20.4415 41.345 21.9495 41.345C22.4715 41.345 23.0225 41.461 23.6025 41.693C24.0375 41.867 24.4435 41.954 24.8205 41.954C26.4735 41.954 27.1985 40.359 25.4295 38.967C24.2695 38.068 22.8775 37.43 21.7175 36.531ZM36.7722 43.723C35.4382 40.011 35.6412 34.907 37.0622 31.34C37.5262 30.209 38.7152 29.658 39.9332 29.658C41.4702 29.658 43.2972 30.731 43.5292 32.355C43.7322 33.805 43.2682 36.009 42.9782 37.43C42.7172 38.764 42.3402 40.243 43.0652 41.519C43.2972 41.954 43.7902 42.273 44.2542 42.273C45.2982 42.273 45.9942 40.794 46.2552 39.953C47.3282 36.705 45.4432 32.384 48.4592 30.093C48.8362 29.803 49.3292 29.658 49.7932 29.6C50.5182 29.542 51.2722 29.687 51.9102 29.977C52.2002 30.093 52.5192 30.238 52.7222 30.47C53.1572 30.905 53.3602 31.543 53.4182 32.123C53.5052 32.877 53.4472 33.66 53.3312 34.414C53.1282 35.835 52.7802 37.256 52.6062 38.677C52.4032 40.504 52.5772 41.867 54.2302 43.433C54.3752 43.578 54.4912 43.81 54.5492 44.013C54.7232 45.144 53.7082 46.42 52.6062 46.768C52.2002 46.884 51.7942 46.971 51.3882 46.971C49.6482 46.971 47.8792 45.898 47.2992 44.245C46.1102 46.043 43.9352 47.319 41.7602 47.406C40.4262 47.435 38.9472 46.913 38.0192 45.956C37.4392 45.318 37.0332 44.535 36.7722 43.723ZM56.2525 42.186C55.7595 38.01 55.6145 33.747 56.0205 29.571C56.2525 27.483 56.9485 25.482 59.3845 25.482C60.9215 25.482 62.5455 25.946 63.0385 27.57C63.3285 28.672 63.3285 29.861 63.2705 30.992C63.2125 31.862 63.1545 32.703 63.0675 33.573C63.5605 33.254 64.3145 32.79 64.4885 32.674C65.2135 32.239 66.0255 31.862 66.8665 31.717C68.0845 31.543 69.3895 31.717 70.4625 32.297C71.0135 32.616 71.5065 33.051 71.9125 33.544C72.8695 34.849 73.3625 36.531 73.3915 38.126C73.4495 40.069 72.9275 42.157 71.8835 43.81C70.5495 45.927 68.4615 47.145 65.9385 47.319C64.9815 47.377 63.9955 47.261 63.0675 47C62.7485 46.942 62.4875 46.826 62.2265 46.652C61.6175 47.145 60.8055 47.464 60.0225 47.464C58.6885 47.464 57.4125 46.681 56.8905 45.347C56.4845 44.361 56.3685 43.259 56.2525 42.186ZM64.0245 37.517C62.9225 38.474 62.5165 40.069 62.8355 41.403C63.0095 42.186 63.6185 42.505 64.2855 42.505C65.4455 42.505 66.1125 41.722 66.4605 40.707C66.6925 39.924 66.8665 38.184 66.3445 37.575C66.0545 37.227 65.6485 37.053 65.2425 37.053C64.8075 37.053 64.3725 37.227 64.0245 37.517ZM75.7808 46.507C74.5338 44.709 74.5338 40.214 74.5338 38.097C74.5628 35.864 74.6208 33.544 75.3458 31.427C75.8678 29.89 76.5638 28.788 78.3908 28.788C79.0868 28.788 79.8408 28.991 80.4498 29.339C80.8558 29.6 81.2328 29.977 81.4358 30.441C81.6388 30.876 81.7258 31.398 81.6968 31.891C82.5088 30.992 83.4948 30.586 84.4808 30.586C85.8438 30.586 87.2358 31.369 88.2798 32.674C89.2948 31.137 90.8028 30.296 92.3688 30.296C94.0218 30.296 95.7618 31.253 97.0378 33.254C97.9368 34.675 99.0388 39.344 97.9368 44.651C97.7628 45.405 97.5308 47.406 94.4278 47.174C91.5858 46.971 91.7018 43.462 91.7018 37.836C91.7018 36.009 91.1508 35.226 90.6288 35.226C90.1358 35.226 89.6718 35.835 89.6428 36.908C89.7588 39.17 90.0488 42.563 89.6428 44.68C89.4978 45.434 89.2368 47.464 86.1338 47.232C83.2918 47 83.4078 43.52 83.4078 37.865C83.4078 35.922 82.7698 35.023 82.1608 35.023C81.5518 35.023 80.9718 36.038 81.3198 37.865C81.7258 40.446 81.9288 44.042 81.4938 45.666C81.1748 46.913 79.6958 47.754 78.2748 47.754C77.3178 47.754 76.3608 47.377 75.7808 46.507ZM101.653 46.246C99.5069 44.361 99.1589 37.633 100.232 33.602C100.435 32.877 100.667 32.065 101.218 31.514C101.856 30.76 103.103 30.499 104.06 30.499C104.93 30.499 106.351 30.847 106.96 31.514C107.54 32.065 107.743 32.964 107.801 33.747C107.83 34.936 107.511 36.096 107.279 37.285C106.931 39.112 106.641 40.968 106.728 42.853C106.757 43.607 106.815 44.39 106.728 45.173C106.554 46.391 105.8 47.029 104.553 47.145C103.538 47.261 102.407 46.884 101.653 46.246ZM101.914 28.788C100.754 27.541 101.044 25.192 102.552 24.206C103.161 23.8 103.886 23.597 104.611 23.597C105.452 23.597 106.293 23.887 106.989 24.409C107.54 24.844 107.801 25.366 107.772 26.062C107.685 27.976 105.887 29.513 104.002 29.513C103.277 29.513 102.436 29.368 101.914 28.788ZM108.761 34.849C108.355 34.037 108.645 32.848 109.515 32.413C109.979 32.181 111.255 31.949 112.067 31.949C112.038 31.079 112.038 30.209 112.241 29.368C112.357 28.759 112.56 28.15 112.937 27.628C113.198 27.222 113.604 26.903 114.039 26.642C114.59 26.352 115.344 26.207 116.127 26.207C117.606 26.207 118.998 26.671 119.462 28.208C119.694 28.962 119.665 29.803 119.578 30.586C119.549 30.992 119.491 31.398 119.346 31.804C120.767 31.804 122.623 31.543 123.551 32.703C124.827 34.327 123.145 36.328 121.231 36.56C120.506 36.676 119.781 36.56 119.056 36.531C119.027 36.531 118.882 36.502 118.737 36.502C118.621 37.546 118.563 38.619 118.534 39.692C118.505 40.417 118.534 41.171 118.737 41.867C118.824 42.157 119.085 42.592 119.404 42.621C120.419 42.679 121.579 41.925 122.536 41.925C123.058 41.925 123.522 42.157 123.87 42.824C124.189 43.462 124.131 44.216 123.87 44.854C123.174 46.797 120.622 47.957 118.679 47.957C117.693 47.957 116.707 47.696 115.692 47.145C111.835 45.115 111.661 39.605 111.922 35.835C111.226 35.777 110.472 35.806 109.805 35.632C109.37 35.516 108.935 35.226 108.761 34.849Z" fill="#F3FBFF"/>
</g>
</g>
<defs>
<filter id="filter0_d_39_5" x="-4" y="0" width="148.945" height="83" filterUnits="userSpaceOnUse" color-interpolation-filters="sRGB">
<feFlood flood-opacity="0" result="BackgroundImageFix"/>
<feColorMatrix in="SourceAlpha" type="matrix" values="0 0 0 0 0 0 0 0 0 0 0 0 0 0 0 0 0 0 127 0" result="hardAlpha"/>
<feOffset dy="4"/>
<feGaussianBlur stdDeviation="2"/>
<feComposite in2="hardAlpha" operator="out"/>
<feColorMatrix type="matrix" values="0 0 0 0 0 0 0 0 0 0 0 0 0 0 0 0 0 0 0.25 0"/>
<feBlend mode="normal" in2="BackgroundImageFix" result="effect1_dropShadow_39_5"/>
<feBlend mode="normal" in="SourceGraphic" in2="effect1_dropShadow_39_5" result="shape"/>
</filter>
<filter id="filter1_d_39_5" x="14.3825" y="23.597" width="114.445" height="32.36" filterUnits="userSpaceOnUse" color-interpolation-filters="sRGB">
<feFlood flood-opacity="0" result="BackgroundImageFix"/>
<feColorMatrix in="SourceAlpha" type="matrix" values="0 0 0 0 0 0 0 0 0 0 0 0 0 0 0 0 0 0 127 0" result="hardAlpha"/>
<feOffset dy="4"/>
<feGaussianBlur stdDeviation="2"/>
<feComposite in2="hardAlpha" operator="out"/>
<feColorMatrix type="matrix" values="0 0 0 0 0 0 0 0 0 0 0 0 0 0 0 0 0 0 0.25 0"/>
<feBlend mode="normal" in2="BackgroundImageFix" result="effect1_dropShadow_39_5"/>
<feBlend mode="normal" in="SourceGraphic" in2="effect1_dropShadow_39_5" result="shape"/>
</filter>
<linearGradient id="paint0_linear_39_5" x1="70.029" y1="1.33122e-06" x2="70.029" y2="74.8712" gradientUnits="userSpaceOnUse">
<stop stop-color="#0091FF"/>
<stop offset="1" stop-color="#62BBFF"/>
</linearGradient>
<linearGradient id="paint1_linear_39_5" x1="70.6946" y1="0.196838" x2="70.6946" y2="75" gradientUnits="userSpaceOnUse">
<stop stop-color="#0091FF"/>
<stop offset="1" stop-color="#62BBFF"/>
</linearGradient>
<clipPath id="clip0_39_5">
<rect width="145" height="75" fill="white"/>
</clipPath>
</defs>
</svg>
