<svg width="145" height="75" viewBox="0 0 145 75" fill="none" xmlns="http://www.w3.org/2000/svg">
<g clip-path="url(#clip0_39_5)">
<g filter="url(#filter0_d_39_5)">
<path d="M133.497 51.8547C125.722 63.8287 108.755 67.4081 85.5463 66.825C62.459 65.938 42.1575 59.5774 21.0533 50.1624C-0.108578 39.5297 -1.79216 29.5451 17.2173 16.4467C34.9461 3.91137 57.9704 -1.92832 80.7513 0.565207C103.742 2.7323 121.052 9.64354 132.538 19.3106C141.299 30.33 143.45 40.7417 133.497 51.8547Z" fill="url(#paint0_linear_39_5)"/>
<path d="M133.497 51.8547C123.108 63.3279 107.149 67.5816 85.5464 66.825L133.497 51.8547ZM133.497 51.8547C123.867 62.6046 108.983 68.0726 85.5464 66.825L133.497 51.8547ZM85.5464 66.825C63.3447 65.1928 42.4344 59.6923 21.0534 50.1624L85.5464 66.825ZM85.5464 66.825C63.8007 65.2879 42.0783 59.9306 21.0534 50.1624L85.5464 66.825ZM21.0534 50.1624C0.013979 39.7329 -0.814538 28.6522 17.2174 16.4467L21.0534 50.1624ZM21.0534 50.1624C-0.291779 40.4985 0.143357 29.1729 17.2174 16.4467L21.0534 50.1624ZM17.2174 16.4467C34.4293 4.30571 56.5392 -1.08654 80.7514 0.565213L17.2174 16.4467ZM17.2174 16.4467C34.1828 3.92118 57.1747 -1.37234 80.7514 0.565213L17.2174 16.4467ZM80.7514 0.565213C105.832 2.39093 122.61 8.24958 132.538 19.3106L80.7514 0.565213ZM80.7514 0.565213C105.18 1.88 121.829 8.96176 132.538 19.3106L80.7514 0.565213ZM132.538 19.3106C142.277 29.5198 142.034 41.0184 133.497 51.8547L132.538 19.3106ZM132.538 19.3106C143.233 29.6655 143.911 40.9044 133.497 51.8547L132.538 19.3106Z" fill="url(#paint1_linear_39_5)"/>
</g>
<g filter="url(#filter1_d_39_5)">
<path d="M36.1507 33.805C35.9767 31.891 35.9767 29.977 36.0347 28.063C36.0927 26.294 36.1797 24.525 36.5567 22.814C37.0207 21.016 37.4847 19.392 39.5727 19.102C40.1817 19.044 40.8197 19.015 41.3997 19.131C42.2697 19.247 43.8067 19.885 44.2707 20.697C44.6187 21.277 44.6477 22.002 44.5897 22.669C44.5027 23.684 44.2707 24.67 44.0677 25.685C43.7777 27.019 43.0817 32.587 43.0817 33.95C43.0817 35.806 44.1547 36.473 45.6047 36.473C46.1557 36.473 46.7647 36.386 47.4027 36.212C47.6927 36.125 47.9827 36.067 48.3017 36.067C48.5337 36.067 48.7657 36.096 48.9687 36.183C50.0707 36.531 50.4477 37.923 50.1287 39.025C49.6357 40.794 48.0697 41.519 46.3877 41.751C45.0827 41.954 43.7777 41.925 42.4727 41.867C41.1387 41.809 39.7757 41.432 38.7027 40.707C36.6437 39.228 36.3247 36.096 36.1507 33.805ZM56.5511 41.287C51.0121 39.576 49.3591 32.442 51.6791 27.483C53.0131 24.641 56.2031 23.046 59.3061 23.046C61.7711 23.046 64.1781 24.061 65.5411 26.236C68.1221 30.325 67.1651 36.212 63.9751 39.663C62.7571 41.055 61.0171 41.693 59.1901 41.693C58.2911 41.693 57.3921 41.548 56.5511 41.287ZM61.2201 28.382C60.7851 27.947 60.3501 27.744 59.9151 27.744C58.4361 27.744 57.1311 30.035 57.2471 31.775C57.2471 32.79 58.1171 33.486 59.1031 33.486C59.4221 33.486 59.7411 33.399 60.0021 33.225C61.4521 32.181 62.4961 29.658 61.2201 28.382ZM67.8815 33.37C67.8235 31.398 68.3455 29.339 69.4185 27.657C70.8105 25.54 72.8115 24.293 75.3635 24.177C76.3205 24.119 77.3065 24.235 78.2345 24.467C78.5245 24.554 78.8145 24.67 79.0755 24.844C79.6265 24.293 80.4965 24.003 81.2505 24.003C82.5845 24.003 83.8315 24.786 84.3825 26.149C84.7885 27.135 84.9335 28.237 85.0495 29.281C85.4265 32.587 85.8615 36.067 84.9335 39.257C84.4115 40.968 83.5705 42.621 82.3815 43.955C80.9895 45.55 77.8865 47.116 75.7695 47.116C75.0735 47.116 74.3775 46.971 73.7105 46.623C72.0575 45.753 71.9125 43.056 73.7105 42.041C74.7255 41.49 75.5665 41.461 76.5815 40.91C78.9305 39.634 79.1915 36.908 79.1915 36.908C78.1475 38.503 76.0015 39.721 73.7685 39.721C70.1145 39.721 68.0265 36.879 67.8815 33.37ZM74.8415 30.789C74.5805 31.543 74.4065 33.283 74.9285 33.921C75.2185 34.269 75.6245 34.414 76.0595 34.414C76.4655 34.414 76.9295 34.269 77.2775 33.95C78.3505 33.022 78.7565 31.427 78.4665 30.093C78.2925 29.31 77.6545 28.962 76.9875 28.962C75.7985 28.962 75.1895 29.774 74.8415 30.789ZM88.8066 40.649C86.6606 38.764 86.3126 32.036 87.3856 28.005C87.5886 27.28 87.8206 26.468 88.3716 25.917C89.0096 25.163 90.2566 24.902 91.2136 24.902C92.0836 24.902 93.5046 25.25 94.1136 25.917C94.6936 26.468 94.8966 27.367 94.9546 28.15C94.9836 29.339 94.6646 30.499 94.4326 31.688C94.0846 33.515 93.7946 35.371 93.8816 37.256C93.9106 38.01 93.9686 38.793 93.8816 39.576C93.7076 40.794 92.9536 41.432 91.7066 41.548C90.6916 41.664 89.5606 41.287 88.8066 40.649ZM89.0676 23.191C87.9076 21.944 88.1976 19.595 89.7056 18.609C90.3146 18.203 91.0396 18 91.7646 18C92.6056 18 93.4466 18.29 94.1426 18.812C94.6936 19.247 94.9546 19.769 94.9256 20.465C94.8386 22.379 93.0406 23.916 91.1556 23.916C90.4306 23.916 89.5896 23.771 89.0676 23.191ZM97.6552 40.939C96.4082 39.141 96.4082 34.675 96.4082 32.558C96.4372 30.296 96.4952 27.976 97.2202 25.888C97.7422 24.322 98.4382 23.22 100.265 23.22C101.396 23.22 102.817 23.771 103.31 24.873C103.513 25.308 103.6 25.83 103.571 26.323C104.383 25.424 105.369 25.018 106.326 25.018C107.921 25.018 109.545 26.062 110.618 27.744C111.517 29.165 112.619 33.834 111.517 39.141C111.372 39.895 111.111 41.896 108.008 41.664C105.166 41.461 105.282 37.952 105.282 32.326C105.282 30.383 104.644 29.484 104.035 29.484C103.426 29.484 102.846 30.499 103.194 32.326C103.6 34.878 103.803 38.474 103.368 40.127C103.049 41.374 101.599 42.215 100.178 42.215C99.1922 42.215 98.2642 41.838 97.6552 40.939Z" fill="#F3FBFF"/>
</g>
</g>
<defs>
<filter id="filter0_d_39_5" x="0" y="0" width="144.945" height="75" filterUnits="userSpaceOnUse" color-interpolation-filters="sRGB">
<feFlood flood-opacity="0" result="BackgroundImageFix"/>
<feColorMatrix in="SourceAlpha" type="matrix" values="0 0 0 0 0 0 0 0 0 0 0 0 0 0 0 0 0 0 127 0" result="hardAlpha"/>
<feOffset dy="4"/>
<feGaussianBlur stdDeviation="2"/>
<feComposite in2="hardAlpha" operator="out"/>
<feColorMatrix type="matrix" values="0 0 0 0 0 0 0 0 0 0 0 0 0 0 0 0 0 0 0.25 0"/>
<feBlend mode="normal" in2="BackgroundImageFix" result="effect1_dropShadow_39_5"/>
<feBlend mode="normal" in="SourceGraphic" in2="effect1_dropShadow_39_5" result="shape"/>
</filter>
<filter id="filter1_d_39_5" x="32" y="18" width="83.9789" height="37.116" filterUnits="userSpaceOnUse" color-interpolation-filters="sRGB">
<feFlood flood-opacity="0" result="BackgroundImageFix"/>
<feColorMatrix in="SourceAlpha" type="matrix" values="0 0 0 0 0 0 0 0 0 0 0 0 0 0 0 0 0 0 127 0" result="hardAlpha"/>
<feOffset dy="4"/>
<feGaussianBlur stdDeviation="2"/>
<feComposite in2="hardAlpha" operator="out"/>
<feColorMatrix type="matrix" values="0 0 0 0 0 0 0 0 0 0 0 0 0 0 0 0 0 0 0.25 0"/>
<feBlend mode="normal" in2="BackgroundImageFix" result="effect1_dropShadow_39_5"/>
<feBlend mode="normal" in="SourceGraphic" in2="effect1_dropShadow_39_5" result="shape"/>
</filter>
<linearGradient id="paint0_linear_39_5" x1="72.0416" y1="1.18922e-06" x2="72.0416" y2="66.8849" gradientUnits="userSpaceOnUse">
<stop stop-color="#0091FF"/>
<stop offset="1" stop-color="#62BBFF"/>
</linearGradient>
<linearGradient id="paint1_linear_39_5" x1="72.6883" y1="0.175842" x2="72.6883" y2="67" gradientUnits="userSpaceOnUse">
<stop stop-color="#0091FF"/>
<stop offset="1" stop-color="#62BBFF"/>
</linearGradient>
<clipPath id="clip0_39_5">
<rect width="145" height="75" fill="white"/>
</clipPath>
</defs>
</svg>
