<svg width="400" height="384" viewBox="0 0 400 384" fill="none" xmlns="http://www.w3.org/2000/svg">
<g filter="url(#filter0_d_9_87)">
<path d="M42.589 92.5462C93.0721 22.5771 158.547 -9.9113 223.249 3.97098L223.256 3.97195L223.263 3.97391C288.651 16.0553 337.887 54.5744 370.575 108.485C395.514 169.981 401.608 228.019 373.305 289.964L373.294 289.989L373.285 290.015C362.233 323.384 344.666 345.007 321.654 357.896C298.989 370.591 270.984 374.845 238.598 373.423L237.052 373.351C171.391 368.402 113.61 332.942 53.465 280.349C23.3443 250.681 7.15083 221.981 5.19446 191.619C3.26828 161.726 15.1369 130.115 41.3273 94.262L42.5851 92.5511L42.589 92.5462Z" fill="url(#paint0_linear_9_87)" stroke="white"/>
<path d="M373.76 290.172C344.136 354.303 298.63 378.079 237.027 373.85L373.76 290.172ZM373.76 290.172C346.301 350.259 303.857 380.824 237.027 373.85L373.76 290.172ZM237.027 373.85C173.718 364.727 114.091 333.981 53.1218 280.712L237.027 373.85ZM237.027 373.85C175.018 365.258 113.076 335.313 53.1218 280.712L237.027 373.85ZM53.1218 280.712C-6.87324 222.415 -9.2358 160.478 42.1832 92.2538L53.1218 280.712ZM53.1218 280.712C-7.74512 226.694 -6.50431 163.388 42.1832 92.2538L53.1218 280.712ZM42.1832 92.2538C91.264 24.3899 154.312 -5.75087 223.354 3.48183L42.1832 92.2538ZM42.1832 92.2538C90.561 22.2405 156.124 -7.3484 223.354 3.48183L42.1832 92.2538ZM223.354 3.48183C294.874 13.6869 342.716 46.4346 371.025 108.262L223.354 3.48183ZM223.354 3.48183C293.015 10.831 340.489 50.4155 371.025 108.262L223.354 3.48183ZM371.025 108.262C398.798 165.328 398.104 229.6 373.76 290.172L371.025 108.262ZM371.025 108.262C401.523 166.142 403.458 228.963 373.76 290.172L371.025 108.262Z" fill="url(#paint1_linear_9_87)"/>
<path d="M373.76 290.172C344.136 354.303 298.63 378.079 237.027 373.85M373.76 290.172C346.301 350.259 303.857 380.824 237.027 373.85M373.76 290.172C398.104 229.6 398.798 165.328 371.025 108.262M373.76 290.172C403.458 228.963 401.523 166.142 371.025 108.262M237.027 373.85C173.718 364.727 114.091 333.981 53.1218 280.712M237.027 373.85C175.018 365.258 113.076 335.313 53.1218 280.712M53.1218 280.712C-6.87324 222.415 -9.2358 160.478 42.1832 92.2538M53.1218 280.712C-7.74512 226.694 -6.50431 163.388 42.1832 92.2538M42.1832 92.2538C91.264 24.3899 154.312 -5.75087 223.354 3.48183M42.1832 92.2538C90.561 22.2405 156.124 -7.3484 223.354 3.48183M223.354 3.48183C294.874 13.6869 342.716 46.4346 371.025 108.262M223.354 3.48183C293.015 10.831 340.489 50.4155 371.025 108.262" stroke="white"/>
</g>
<g filter="url(#filter1_d_9_87)">
<path d="M52.2902 200.717C52.0652 191.867 51.6902 182.942 52.4402 174.167C53.3402 164.417 55.1402 156.767 66.9152 156.767C70.2152 156.767 73.5152 157.367 76.7402 157.817C79.4402 158.192 84.0152 158.042 86.7152 158.417C96.3152 159.617 93.6902 176.417 83.4152 175.667C80.3402 175.442 77.4152 174.467 74.4152 174.017C73.2902 173.867 71.9402 173.642 71.0402 174.317C69.2402 175.667 68.0402 180.167 70.9652 180.692C72.3902 180.917 80.3402 180.617 81.8402 180.692C82.8902 180.692 84.5402 180.767 85.5152 181.217C90.2402 183.542 90.2402 193.442 84.0902 194.567C83.0402 194.717 81.9902 194.792 81.0152 194.792C78.6152 194.792 76.2152 194.417 73.8902 194.192C69.6152 193.742 68.3402 195.467 68.4902 199.367C68.7152 202.742 69.3152 206.117 69.3902 209.492C69.4652 210.842 69.4652 212.192 68.8652 213.317C67.4402 215.792 64.2902 217.067 61.2152 217.067C57.6152 217.067 54.0902 215.417 53.3402 212.042C52.5152 208.367 52.3652 204.467 52.2902 200.717ZM95.8851 205.742C94.2351 199.217 93.9351 192.467 94.3101 185.792C94.5351 180.692 95.0601 175.667 95.9601 170.642C96.8601 165.992 98.2101 160.742 103.085 159.842C106.46 159.167 112.385 160.217 114.185 162.992C115.235 164.642 115.16 166.742 115.01 168.692C114.71 171.992 113.585 175.142 112.835 178.367C111.035 185.792 110.585 193.592 111.185 201.242C111.56 205.217 114.185 211.292 110.36 213.767C109.085 214.592 107.36 215.042 105.56 215.042C99.9351 215.042 97.0851 210.842 95.8851 205.742ZM120.352 205.367C116.902 195.767 117.427 182.567 121.102 173.342C122.302 170.417 125.377 168.992 128.527 168.992C132.502 168.992 137.227 171.767 137.827 175.967C138.352 179.717 137.152 185.417 136.402 189.092C135.727 192.542 134.752 196.367 136.627 199.667C137.227 200.792 138.502 201.617 139.702 201.617C142.402 201.617 144.202 197.792 144.877 195.617C147.652 187.217 142.777 176.042 150.577 170.117C151.552 169.367 152.827 168.992 154.027 168.842C155.902 168.692 157.852 169.067 159.502 169.817C160.252 170.117 161.077 170.492 161.602 171.092C162.727 172.217 163.252 173.867 163.402 175.367C163.627 177.317 163.477 179.342 163.177 181.292C162.652 184.967 161.752 188.642 161.302 192.317C160.777 197.042 161.227 200.567 165.502 204.617C165.877 204.992 166.177 205.592 166.327 206.117C166.777 209.042 164.152 212.342 161.302 213.242C160.252 213.542 159.202 213.767 158.152 213.767C153.652 213.767 149.077 210.992 147.577 206.717C144.502 211.367 138.877 214.667 133.252 214.892C129.802 214.967 125.977 213.617 123.577 211.142C122.077 209.492 121.027 207.467 120.352 205.367ZM174.182 211.892C168.632 207.017 167.732 189.617 170.507 179.192C171.032 177.317 171.632 175.217 173.057 173.792C174.707 171.842 177.932 171.167 180.407 171.167C182.657 171.167 186.332 172.067 187.907 173.792C189.407 175.217 189.932 177.542 190.082 179.567C190.157 182.642 189.332 185.642 188.732 188.717C187.832 193.442 187.082 198.242 187.307 203.117C187.382 205.067 187.532 207.092 187.307 209.117C186.857 212.267 184.907 213.917 181.682 214.217C179.057 214.517 176.132 213.542 174.182 211.892ZM174.857 166.742C171.857 163.517 172.607 157.442 176.507 154.892C178.082 153.842 179.957 153.317 181.832 153.317C184.007 153.317 186.182 154.067 187.982 155.417C189.407 156.542 190.082 157.892 190.007 159.692C189.782 164.642 185.132 168.617 180.257 168.617C178.382 168.617 176.207 168.242 174.857 166.742ZM194.141 203.867C192.791 198.767 192.641 193.067 193.766 187.817C195.341 180.092 201.341 174.392 209.516 174.392C213.116 174.392 216.416 175.592 219.116 177.917C219.041 176.267 218.966 174.917 218.966 174.392C218.816 171.167 218.966 167.717 220.241 164.792C221.516 161.492 224.141 159.317 227.741 159.317C233.891 159.317 235.916 166.067 236.366 171.167C237.341 183.392 236.966 196.067 233.741 207.917C232.991 210.917 230.891 214.967 227.291 214.967C225.341 214.967 223.391 213.692 221.666 211.742C218.366 214.592 213.341 215.792 209.141 215.792C201.491 215.792 196.241 211.217 194.141 203.867ZM207.641 189.692C206.741 192.467 208.916 196.067 211.241 197.492C211.691 197.792 212.216 198.092 212.741 198.242C215.516 198.917 217.991 196.367 217.541 193.292C217.166 190.292 213.491 187.442 210.641 187.442C209.291 187.442 208.166 188.117 207.641 189.692ZM245.812 211.892C240.262 207.017 239.362 189.617 242.137 179.192C242.662 177.317 243.262 175.217 244.687 173.792C246.337 171.842 249.562 171.167 252.037 171.167C254.287 171.167 257.962 172.067 259.537 173.792C261.037 175.217 261.562 177.542 261.712 179.567C261.787 182.642 260.962 185.642 260.362 188.717C259.462 193.442 258.712 198.242 258.937 203.117C259.012 205.067 259.162 207.092 258.937 209.117C258.487 212.267 256.537 213.917 253.312 214.217C250.687 214.517 247.762 213.542 245.812 211.892ZM246.487 166.742C243.487 163.517 244.237 157.442 248.137 154.892C249.712 153.842 251.587 153.317 253.462 153.317C255.637 153.317 257.812 154.067 259.612 155.417C261.037 156.542 261.712 157.892 261.637 159.692C261.412 164.642 256.762 168.617 251.887 168.617C250.012 168.617 247.837 168.242 246.487 166.742ZM265.697 204.467C265.097 196.367 265.697 188.192 266.672 180.092C266.972 177.242 267.197 174.392 268.247 171.767C270.947 165.092 277.547 163.367 283.772 163.367C285.497 163.367 287.222 163.442 288.797 163.667C292.172 164.042 297.197 164.567 297.572 168.917C297.647 170.342 297.572 171.767 297.347 173.192C296.897 175.817 295.397 177.917 292.547 178.067C290.822 178.217 285.122 177.617 283.772 178.667C283.247 179.042 283.097 180.467 283.097 181.067C283.097 181.742 283.022 183.242 283.622 183.617C284.372 184.067 287.297 183.917 288.122 183.917C291.947 183.917 295.622 184.067 295.847 189.092C295.922 190.517 295.622 192.167 294.647 193.217C293.522 194.492 291.572 194.867 289.922 195.017C288.347 195.242 286.697 195.092 285.122 194.867C284.822 194.792 283.022 194.492 282.647 194.492C282.572 194.867 282.497 196.742 282.497 197.117C282.572 200.117 283.097 203.117 283.847 206.042C284.447 208.217 285.272 210.242 285.497 212.492C285.647 213.842 285.497 215.342 284.897 216.617C283.472 219.242 280.547 219.917 277.847 220.142C275.447 220.292 272.672 219.917 270.647 218.492C266.672 215.567 266.072 208.967 265.697 204.467ZM307.758 202.667C299.958 197.342 297.858 184.517 300.708 175.517C301.908 171.767 305.733 169.667 309.333 169.667C312.408 169.667 315.333 171.242 316.158 174.617C317.358 179.267 315.933 184.367 317.433 188.942C318.108 190.817 319.908 192.017 321.858 192.017C326.433 192.017 327.408 186.992 328.008 183.392C328.458 180.167 328.833 176.717 330.483 173.792C331.908 171.242 334.458 170.417 337.158 170.417C338.208 170.417 339.258 170.567 340.233 170.792C349.083 173.192 345.408 181.967 343.533 187.667C341.808 193.292 340.083 198.992 339.183 204.767C338.583 208.967 338.508 213.242 337.608 217.367C336.333 222.767 332.358 226.967 326.883 228.317C324.183 228.917 321.408 229.442 318.633 229.142C313.383 228.467 309.108 222.467 312.708 217.517C313.608 216.242 315.033 215.417 316.383 214.592C321.858 211.367 322.833 210.317 324.408 203.942C321.933 204.617 319.233 205.142 316.533 205.142C313.458 205.142 310.383 204.467 307.758 202.667Z" fill="#F3FBFF"/>
</g>
<defs>
<filter id="filter0_d_9_87" x="0.493286" y="0.32254" width="399.007" height="383.006" filterUnits="userSpaceOnUse" color-interpolation-filters="sRGB">
<feFlood flood-opacity="0" result="BackgroundImageFix"/>
<feColorMatrix in="SourceAlpha" type="matrix" values="0 0 0 0 0 0 0 0 0 0 0 0 0 0 0 0 0 0 127 0" result="hardAlpha"/>
<feOffset dy="4"/>
<feGaussianBlur stdDeviation="2"/>
<feComposite in2="hardAlpha" operator="out"/>
<feColorMatrix type="matrix" values="0 0 0 0 0 0 0 0 0 0 0 0 0 0 0 0 0 0 0.25 0"/>
<feBlend mode="normal" in2="BackgroundImageFix" result="effect1_dropShadow_9_87"/>
<feBlend mode="normal" in="SourceGraphic" in2="effect1_dropShadow_9_87" result="shape"/>
</filter>
<filter id="filter1_d_9_87" x="47.6902" y="153.317" width="305.393" height="84.125" filterUnits="userSpaceOnUse" color-interpolation-filters="sRGB">
<feFlood flood-opacity="0" result="BackgroundImageFix"/>
<feColorMatrix in="SourceAlpha" type="matrix" values="0 0 0 0 0 0 0 0 0 0 0 0 0 0 0 0 0 0 127 0" result="hardAlpha"/>
<feOffset dy="4"/>
<feGaussianBlur stdDeviation="2"/>
<feComposite in2="hardAlpha" operator="out"/>
<feColorMatrix type="matrix" values="0 0 0 0 0 0 0 0 0 0 0 0 0 0 0 0 0 0 0.25 0"/>
<feBlend mode="normal" in2="BackgroundImageFix" result="effect1_dropShadow_9_87"/>
<feBlend mode="normal" in="SourceGraphic" in2="effect1_dropShadow_9_87" result="shape"/>
</filter>
<linearGradient id="paint0_linear_9_87" x1="198.518" y1="0.32254" x2="198.518" y2="374.185" gradientUnits="userSpaceOnUse">
<stop stop-color="#0091FF"/>
<stop offset="1" stop-color="#62BBFF"/>
</linearGradient>
<linearGradient id="paint1_linear_9_87" x1="200.362" y1="1.30539" x2="200.362" y2="374.828" gradientUnits="userSpaceOnUse">
<stop stop-color="#0091FF"/>
<stop offset="1" stop-color="#62BBFF"/>
</linearGradient>
</defs>
</svg>
