<svg width="15" height="16" viewBox="0 0 15 16" fill="none" xmlns="http://www.w3.org/2000/svg">
<path d="M7.40647 0.868652C5.93279 0.868652 4.51947 1.45407 3.47742 2.49612C2.43537 3.53817 1.84995 4.95149 1.84995 6.42517V9.22565C1.85007 9.34879 1.82153 9.47026 1.7666 9.58047L0.403671 12.3055C0.337093 12.4387 0.305656 12.5866 0.312345 12.7353C0.319033 12.884 0.363626 13.0286 0.441888 13.1552C0.52015 13.2818 0.629482 13.3863 0.7595 13.4588C0.889518 13.5312 1.03591 13.5693 1.18476 13.5693H13.6282C13.777 13.5693 13.9234 13.5312 14.0534 13.4588C14.1835 13.3863 14.2928 13.2818 14.371 13.1552C14.4493 13.0286 14.4939 12.884 14.5006 12.7353C14.5073 12.5866 14.4758 12.4387 14.4093 12.3055L13.0471 9.58047C12.9919 9.47033 12.9631 9.34885 12.963 9.22565V6.42517C12.963 4.95149 12.3776 3.53817 11.3355 2.49612C10.2935 1.45407 8.88015 0.868652 7.40647 0.868652ZM7.40647 15.9506C6.9138 15.9509 6.43318 15.7983 6.03085 15.514C5.62851 15.2297 5.32427 14.8275 5.16005 14.363H9.65289C9.48866 14.8275 9.18442 15.2297 8.78209 15.514C8.37975 15.7983 7.89913 15.9509 7.40647 15.9506Z" fill="white"/>
</svg>
