<svg width="53" height="60" viewBox="0 0 53 60" fill="none" xmlns="http://www.w3.org/2000/svg">
<path d="M7.72847 59.1362C5.7122 59.1362 3.7785 58.328 2.35278 56.8893C0.92706 55.4506 0.126099 53.4993 0.126099 51.4647V37.302C0.126099 36.2946 0.32274 35.297 0.704795 34.3663C1.08685 33.4355 1.64684 32.5898 2.35278 31.8774C3.7785 30.4388 5.7122 29.6305 7.72847 29.6305H15.9156C17.9319 29.6305 19.8656 30.4388 21.2913 31.8774C22.7171 33.3161 23.518 35.2674 23.518 37.302V51.4647C23.518 53.4993 22.7171 55.4506 21.2913 56.8893C19.8656 58.328 17.9319 59.1362 15.9156 59.1362H7.72847ZM7.72847 23.7294C5.7122 23.7294 3.7785 22.9211 2.35278 21.4824C0.92706 20.0438 0.126099 18.0925 0.126099 16.0579V7.79629C0.126099 5.76169 0.92706 3.81041 2.35278 2.37173C3.7785 0.933048 5.7122 0.124805 7.72847 0.124805H15.9156C17.9319 0.124805 19.8656 0.933048 21.2913 2.37173C22.7171 3.81041 23.518 5.76169 23.518 7.79629V16.0579C23.518 18.0925 22.7171 20.0438 21.2913 21.4824C19.8656 22.9211 17.9319 23.7294 15.9156 23.7294H7.72847ZM36.9684 59.1362C34.9521 59.1362 33.0184 58.328 31.5927 56.8893C30.167 55.4506 29.366 53.4993 29.366 51.4647V43.2031C29.366 41.1685 30.167 39.2173 31.5927 37.7786C33.0184 36.3399 34.9521 35.5317 36.9684 35.5317H45.1555C46.1539 35.5317 47.1425 35.7301 48.0648 36.1156C48.9872 36.5011 49.8253 37.0662 50.5312 37.7786C51.2372 38.4909 51.7972 39.3366 52.1792 40.2674C52.5613 41.1981 52.7579 42.1957 52.7579 43.2031V51.4647C52.7579 52.4722 52.5613 53.4697 52.1792 54.4005C51.7972 55.3312 51.2372 56.1769 50.5312 56.8893C49.8253 57.6017 48.9872 58.1667 48.0648 58.5523C47.1425 58.9378 46.1539 59.1362 45.1555 59.1362H36.9684ZM36.9684 29.6305C34.9521 29.6305 33.0184 28.8223 31.5927 27.3836C30.167 25.9449 29.366 23.9936 29.366 21.959V7.79629C29.366 5.76169 30.167 3.81041 31.5927 2.37173C33.0184 0.933048 34.9521 0.124805 36.9684 0.124805H45.1555C46.1539 0.124805 47.1425 0.323235 48.0648 0.708763C48.9872 1.09429 49.8253 1.65937 50.5312 2.37173C51.2372 3.0841 51.7972 3.92979 52.1792 4.86054C52.5613 5.79129 52.7579 6.78886 52.7579 7.79629V21.959C52.7579 22.9665 52.5613 23.964 52.1792 24.8948C51.7972 25.8255 51.2372 26.6712 50.5312 27.3836C49.8253 28.096 48.9872 28.661 48.0648 29.0466C47.1425 29.4321 46.1539 29.6305 45.1555 29.6305H36.9684Z" fill="url(#paint0_linear_23_405)"/>
<defs>
<linearGradient id="paint0_linear_23_405" x1="47.9003" y1="74.4792" x2="-38.9425" y2="-36.7126" gradientUnits="userSpaceOnUse">
<stop offset="0.00268436" stop-color="white"/>
<stop offset="0.783654" stop-color="#999999"/>
</linearGradient>
</defs>
</svg>
