<svg width="145" height="75" viewBox="0 0 145 75" fill="none" xmlns="http://www.w3.org/2000/svg">
<g clip-path="url(#clip0_39_5)">
<g filter="url(#filter0_d_39_5)">
<path d="M133.279 58.0463C125.277 71.45 107.815 75.4568 83.9282 74.8041C60.1665 73.8112 39.272 66.6911 17.5514 56.1519C-4.22858 44.2497 -5.96134 33.0729 13.6034 18.4105C31.85 4.3784 55.5468 -2.15857 78.9931 0.632695C102.655 3.05855 120.471 10.795 132.292 21.6163C141.309 33.9515 143.523 45.6064 133.279 58.0463Z" fill="url(#paint0_linear_39_5)"/>
<path d="M133.279 58.0463C122.587 70.8894 106.162 75.6511 83.9282 74.8041L133.279 58.0463ZM133.279 58.0463C123.368 70.0798 108.049 76.2007 83.9282 74.8041L133.279 58.0463ZM83.9282 74.8041C61.0781 72.977 39.557 66.8197 17.5515 56.1519L83.9282 74.8041ZM83.9282 74.8041C61.5474 73.0835 39.1905 67.0865 17.5515 56.1519L83.9282 74.8041ZM17.5515 56.1519C-4.10248 44.4771 -4.95519 32.0734 13.6034 18.4105L17.5515 56.1519ZM17.5515 56.1519C-4.41716 45.3341 -3.96932 32.6562 13.6034 18.4105L17.5515 56.1519ZM13.6034 18.4105C31.3181 4.81982 54.0738 -1.21628 78.9932 0.632701L13.6034 18.4105ZM13.6034 18.4105C31.0644 4.38938 54.7278 -1.5362 78.9932 0.632701L13.6034 18.4105ZM78.9932 0.632701C104.806 2.67641 122.074 9.23461 132.292 21.6163L78.9932 0.632701ZM78.9932 0.632701C104.135 2.10448 121.271 10.0318 132.292 21.6163L78.9932 0.632701ZM132.292 21.6163C142.316 33.0446 142.066 45.9161 133.279 58.0463L132.292 21.6163ZM132.292 21.6163C143.3 33.2077 143.998 45.7885 133.279 58.0463L132.292 21.6163Z" fill="url(#paint1_linear_39_5)"/>
</g>
<g filter="url(#filter1_d_39_5)">
<path d="M20.5989 36.531C18.2209 34.617 17.2639 31.601 18.9459 28.933C20.4539 26.497 23.5569 25.511 26.4279 25.511C26.9499 25.511 27.4429 25.54 27.9359 25.598C31.2129 26.004 34.9539 28.15 33.0979 31.862C32.5179 33.022 31.5609 33.457 30.5459 33.457C29.6759 33.457 28.7189 33.109 27.9359 32.645C27.5589 32.442 27.1529 32.21 26.7469 32.094C26.4569 32.036 26.1089 32.007 25.8479 32.152C25.6449 32.268 25.5579 32.558 25.5869 32.761C25.5869 33.167 25.7899 33.573 26.0799 33.863C26.8339 34.588 27.7909 35.081 28.7189 35.632C31.1259 36.995 32.7789 38.387 33.0109 41.316C33.0689 42.679 32.6629 44.187 31.7639 45.26C30.1689 47.116 27.7039 47.841 25.1809 47.841C23.3539 47.841 20.3379 47.377 18.8879 46.13C18.3369 45.608 17.9019 44.796 18.0179 44.042C18.2209 42.331 19.3229 41.345 20.8309 41.345C21.3529 41.345 21.9039 41.461 22.4839 41.693C22.9189 41.867 23.3249 41.954 23.7019 41.954C25.3549 41.954 26.0799 40.359 24.3109 38.967C23.1509 38.068 21.7589 37.43 20.5989 36.531ZM36.8135 46.246C34.6675 44.361 34.3195 37.633 35.3925 33.602C35.5955 32.877 35.8275 32.065 36.3785 31.514C37.0165 30.76 38.2635 30.499 39.2205 30.499C40.0905 30.499 41.5115 30.847 42.1205 31.514C42.7005 32.065 42.9035 32.964 42.9615 33.747C42.9905 34.936 42.6715 36.096 42.4395 37.285C42.0915 39.112 41.8015 40.968 41.8885 42.853C41.9175 43.607 41.9755 44.39 41.8885 45.173C41.7145 46.391 40.9605 47.029 39.7135 47.145C38.6985 47.261 37.5675 46.884 36.8135 46.246ZM37.0745 28.788C35.9145 27.541 36.2045 25.192 37.7125 24.206C38.3215 23.8 39.0465 23.597 39.7715 23.597C40.6125 23.597 41.4535 23.887 42.1495 24.409C42.7005 24.844 42.9615 25.366 42.9325 26.062C42.8455 27.976 41.0475 29.513 39.1625 29.513C38.4375 29.513 37.5965 29.368 37.0745 28.788ZM44.0671 38.967C44.0091 36.995 44.5311 34.936 45.6041 33.254C46.9961 31.137 48.9971 29.89 51.5491 29.774C52.5061 29.716 53.4921 29.832 54.4201 30.064C54.7101 30.151 55.0001 30.267 55.2611 30.441C55.8121 29.89 56.6821 29.6 57.4361 29.6C58.7701 29.6 60.0171 30.383 60.5681 31.746C60.9741 32.732 61.1191 33.834 61.2351 34.878C61.6121 38.184 62.0471 41.664 61.1191 44.854C60.5971 46.565 59.7561 48.218 58.5671 49.552C57.1751 51.147 54.0721 52.713 51.9551 52.713C51.2591 52.713 50.5631 52.568 49.8961 52.22C48.2431 51.35 48.0981 48.653 49.8961 47.638C50.9111 47.087 51.7521 47.058 52.7671 46.507C55.1161 45.231 55.3771 42.505 55.3771 42.505C54.3331 44.1 52.1871 45.318 49.9541 45.318C46.3001 45.318 44.2121 42.476 44.0671 38.967ZM51.0271 36.386C50.7661 37.14 50.5921 38.88 51.1141 39.518C51.4041 39.866 51.8101 40.011 52.2451 40.011C52.6511 40.011 53.1151 39.866 53.4631 39.547C54.5361 38.619 54.9421 37.024 54.6521 35.69C54.4781 34.907 53.8401 34.559 53.1731 34.559C51.9841 34.559 51.3751 35.371 51.0271 36.386ZM64.3252 46.536C63.0782 44.738 63.0782 40.272 63.0782 38.155C63.1072 35.893 63.1652 33.573 63.8902 31.485C64.4122 29.919 65.1082 28.817 66.9352 28.817C68.0662 28.817 69.4872 29.368 69.9802 30.47C70.1832 30.905 70.2702 31.427 70.2412 31.92C71.0532 31.021 72.0392 30.615 72.9962 30.615C74.5912 30.615 76.2152 31.659 77.2882 33.341C78.1872 34.762 79.2892 39.431 78.1872 44.738C78.0422 45.492 77.7812 47.493 74.6782 47.261C71.8362 47.058 71.9522 43.549 71.9522 37.923C71.9522 35.98 71.3142 35.081 70.7052 35.081C70.0962 35.081 69.5162 36.096 69.8642 37.923C70.2702 40.475 70.4732 44.071 70.0382 45.724C69.7192 46.971 68.2692 47.812 66.8482 47.812C65.8622 47.812 64.9342 47.435 64.3252 46.536ZM89.4338 43.723C88.0998 40.011 88.3028 34.907 89.7238 31.34C90.1878 30.209 91.3768 29.658 92.5948 29.658C94.1318 29.658 95.9588 30.731 96.1908 32.355C96.3938 33.805 95.9298 36.009 95.6398 37.43C95.3788 38.764 95.0018 40.243 95.7268 41.519C95.9588 41.954 96.4518 42.273 96.9158 42.273C97.9598 42.273 98.6558 40.794 98.9168 39.953C99.9898 36.705 98.1048 32.384 101.121 30.093C101.498 29.803 101.991 29.658 102.455 29.6C103.18 29.542 103.934 29.687 104.572 29.977C104.862 30.093 105.181 30.238 105.384 30.47C105.819 30.905 106.022 31.543 106.08 32.123C106.167 32.877 106.109 33.66 105.993 34.414C105.79 35.835 105.442 37.256 105.268 38.677C105.065 40.504 105.239 41.867 106.892 43.433C107.037 43.578 107.153 43.81 107.211 44.013C107.385 45.144 106.37 46.42 105.268 46.768C104.862 46.884 104.456 46.971 104.05 46.971C102.31 46.971 100.541 45.898 99.9608 44.245C98.7718 46.043 96.5968 47.319 94.4218 47.406C93.0878 47.435 91.6088 46.913 90.6808 45.956C90.1008 45.318 89.6948 44.535 89.4338 43.723ZM108.653 46.884C108.131 42.186 108.131 37.256 109.204 32.645C109.465 31.572 110.19 29.89 111.524 29.89C112.22 29.89 112.887 30.412 113.583 31.137C114.656 30.122 116.019 29.542 117.701 29.31C126.459 28.179 127.851 42.766 120.224 45.144C119.644 45.318 119.006 45.434 118.397 45.434C117.121 45.434 115.903 44.999 114.917 44.158C114.975 44.796 115.004 45.318 115.004 45.521C115.091 46.768 115.062 48.102 114.627 49.233C114.105 50.654 113.032 51.321 111.959 51.321C109.697 51.321 108.827 48.74 108.653 46.884ZM115.874 36.241C115.468 38.445 116.425 39.518 117.411 39.518C118.107 39.518 118.832 39.025 119.151 38.01C120.05 35.342 119.093 34.153 117.991 34.153C117.092 34.153 116.106 34.907 115.874 36.241Z" fill="#F3FBFF"/>
</g>
</g>
<defs>
<filter id="filter0_d_39_5" x="-4" y="0" width="148.945" height="83" filterUnits="userSpaceOnUse" color-interpolation-filters="sRGB">
<feFlood flood-opacity="0" result="BackgroundImageFix"/>
<feColorMatrix in="SourceAlpha" type="matrix" values="0 0 0 0 0 0 0 0 0 0 0 0 0 0 0 0 0 0 127 0" result="hardAlpha"/>
<feOffset dy="4"/>
<feGaussianBlur stdDeviation="2"/>
<feComposite in2="hardAlpha" operator="out"/>
<feColorMatrix type="matrix" values="0 0 0 0 0 0 0 0 0 0 0 0 0 0 0 0 0 0 0.25 0"/>
<feBlend mode="normal" in2="BackgroundImageFix" result="effect1_dropShadow_39_5"/>
<feBlend mode="normal" in="SourceGraphic" in2="effect1_dropShadow_39_5" result="shape"/>
</filter>
<filter id="filter1_d_39_5" x="13.2639" y="23.597" width="118.587" height="37.116" filterUnits="userSpaceOnUse" color-interpolation-filters="sRGB">
<feFlood flood-opacity="0" result="BackgroundImageFix"/>
<feColorMatrix in="SourceAlpha" type="matrix" values="0 0 0 0 0 0 0 0 0 0 0 0 0 0 0 0 0 0 127 0" result="hardAlpha"/>
<feOffset dy="4"/>
<feGaussianBlur stdDeviation="2"/>
<feComposite in2="hardAlpha" operator="out"/>
<feColorMatrix type="matrix" values="0 0 0 0 0 0 0 0 0 0 0 0 0 0 0 0 0 0 0.25 0"/>
<feBlend mode="normal" in2="BackgroundImageFix" result="effect1_dropShadow_39_5"/>
<feBlend mode="normal" in="SourceGraphic" in2="effect1_dropShadow_39_5" result="shape"/>
</filter>
<linearGradient id="paint0_linear_39_5" x1="70.029" y1="1.33122e-06" x2="70.029" y2="74.8712" gradientUnits="userSpaceOnUse">
<stop stop-color="#0091FF"/>
<stop offset="1" stop-color="#62BBFF"/>
</linearGradient>
<linearGradient id="paint1_linear_39_5" x1="70.6946" y1="0.196838" x2="70.6946" y2="75" gradientUnits="userSpaceOnUse">
<stop stop-color="#0091FF"/>
<stop offset="1" stop-color="#62BBFF"/>
</linearGradient>
<clipPath id="clip0_39_5">
<rect width="145" height="75" fill="white"/>
</clipPath>
</defs>
</svg>
