<svg width="57" height="58" viewBox="0 0 57 58" fill="none" xmlns="http://www.w3.org/2000/svg">
<path d="M0 19.0384C0 13.9891 2.00582 9.1466 5.57621 5.57621C9.1466 2.00582 13.9891 0 19.0384 0H42.2586C42.9172 0 43.5488 0.261629 44.0145 0.727332C44.4802 1.19303 44.7419 1.82466 44.7419 2.48327C44.7419 3.14187 44.4802 3.7735 44.0145 4.2392C43.5488 4.70491 42.9172 4.96654 42.2586 4.96654H19.0384C15.3063 4.96654 11.7271 6.4491 9.08809 9.08809C6.4491 11.7271 4.96654 15.3063 4.96654 19.0384V42.5698C4.96654 43.2284 4.70491 43.8601 4.2392 44.3258C3.7735 44.7915 3.14187 45.0531 2.48327 45.0531C1.82466 45.0531 1.19304 44.7915 0.727332 44.3258C0.261629 43.8601 0 43.2284 0 42.5698V19.0384Z" fill="url(#paint0_linear_23_407)"/>
<path d="M50.172 11.7309C39.3825 10.5321 28.4935 10.5321 17.7041 11.7309C16.211 11.8967 14.818 12.5628 13.7515 13.6208C12.6851 14.6789 12.008 16.0666 11.8303 17.5583C10.5579 28.441 10.5579 39.4349 11.8303 50.3175C12.008 51.8092 12.6851 53.1969 13.7515 54.255C14.818 55.313 16.211 55.9791 17.7041 56.1449C28.4351 57.3435 39.441 57.3435 50.172 56.1449C51.665 55.9791 53.0581 55.313 54.1245 54.255C55.191 53.1969 55.8681 51.8092 56.0457 50.3175C57.3181 39.4349 57.3181 28.441 56.0457 17.5583C55.8681 16.0666 55.191 14.6789 54.1245 13.6208C53.0581 12.5628 51.665 11.8967 50.172 11.7309Z" fill="url(#paint1_linear_23_407)"/>
<defs>
<linearGradient id="paint0_linear_23_407" x1="40.6124" y1="-11.7138" x2="-23.6413" y2="79.8902" gradientUnits="userSpaceOnUse">
<stop offset="0.00268436" stop-color="white"/>
<stop offset="0.783654" stop-color="#999999"/>
</linearGradient>
<linearGradient id="paint1_linear_23_407" x1="52.743" y1="-1.18336" x2="-13.0503" y2="93.088" gradientUnits="userSpaceOnUse">
<stop offset="0.00268436" stop-color="white"/>
<stop offset="0.783654" stop-color="#999999"/>
</linearGradient>
</defs>
</svg>
